<svg xmlns="http://www.w3.org/2000/svg" version="1.1" xmlns:xlink="http://www.w3.org/1999/xlink" xmlns:svgjs="http://svgjs.com/svgjs" width="1440" height="560" preserveAspectRatio="none" viewBox="0 0 1440 560"><g mask="url(&quot;#SvgjsMask1000&quot;)" fill="none"><rect width="1440" height="560" x="0" y="0" fill="#0e2a47"></rect><path d="M0,387.078C95.913,383.816,191.522,474.023,278.302,433.046C364.268,392.454,396.841,283.276,416.718,190.309C434.337,107.905,390.504,28.883,382.656,-55.018C374.257,-144.814,412.48,-240.728,369.01,-319.749C322.76,-403.824,237.333,-468.408,143.701,-489.4C51.914,-509.978,-42.174,-472.51,-126.507,-430.842C-201.088,-393.993,-245.148,-321.514,-307.514,-266.462C-381.93,-200.774,-516.654,-174.539,-528.509,-75.988C-540.443,23.225,-400.311,72.962,-359.305,164.089C-317.93,256.035,-376.408,399.232,-290.739,452.399C-204.598,505.859,-101.323,390.524,0,387.078" fill="#0b2239"></path><path d="M1440 971.942C1525.746 970.0350000000001 1610.404 979.637 1691.209 950.8879999999999 1787.815 916.518 1893.421 878.962 1947.027 791.552 2002.263 701.483 2017.568 580.719 1978.403 482.589 1940.785 388.334 1813.978 370.227 1748.0720000000001 293.054 1681.41 214.995 1684.359 83.17399999999998 1594.667 33.250999999999976 1502.94-17.80499999999995 1382.857-4.841000000000008 1286.119 35.92999999999995 1193.424 74.99700000000001 1131.338 162.02100000000002 1081.634 249.474 1038.363 325.608 1033.454 413.08799999999997 1022.389 499.957 1011.512 585.356 989.4870000000001 671.545 1017.506 752.947 1046.9479999999999 838.481 1101.196 920.596 1181.507 962.2239999999999 1259.642 1002.725 1352.014 973.899 1440 971.942" fill="#113255"></path></g><defs><mask id="SvgjsMask1000"><rect width="1440" height="560" fill="#ffffff"></rect></mask></defs></svg>